<?xml version="1.0" encoding="UTF-8" ?>
<!DOCTYPE svg PUBLIC "-//W3C//DTD SVG 1.1//EN" "http://www.w3.org/Graphics/SVG/1.1/DTD/svg11.dtd">
<svg width="960pt" height="640pt" viewBox="0 0 960 640" version="1.1" xmlns="http://www.w3.org/2000/svg">
<g id="#ff161fff">
<path fill="#ff161f" opacity="1.00" d=" M 711.87 99.92 C 717.46 99.91 723.04 99.88 728.64 99.94 C 728.71 142.64 728.71 185.34 728.63 228.03 C 726.08 228.08 723.52 228.08 720.97 228.15 C 721.02 231.97 721.17 235.80 720.71 239.61 C 718.25 236.36 719.94 231.90 719.46 228.12 C 716.91 228.08 714.37 228.05 711.84 227.94 C 711.83 185.27 711.85 142.59 711.87 99.92 Z" />
<path fill="#ff161f" opacity="1.00" d=" M 793.47 153.97 C 793.48 151.96 793.52 149.87 794.48 148.04 C 794.97 150.33 795.15 152.67 795.13 155.01 C 795.08 165.25 795.10 175.50 795.11 185.74 C 797.64 185.76 800.18 185.77 802.73 185.79 C 802.80 197.86 802.82 209.92 802.72 221.98 C 800.18 222.03 797.65 222.03 795.13 222.05 C 795.10 224.51 795.08 226.97 795.08 229.44 L 793.68 229.50 C 793.66 227.05 793.65 224.60 793.59 222.15 C 791.02 222.03 788.46 222.00 785.92 221.93 C 785.91 209.88 785.91 197.83 785.93 185.78 C 788.43 185.78 790.94 185.78 793.45 185.76 C 793.51 175.17 793.47 164.57 793.47 153.97 Z" />
<path fill="#ff161f" opacity="1.00" d=" M 756.60 195.22 C 756.96 195.22 757.70 195.20 758.07 195.20 C 758.09 199.93 758.06 204.66 758.11 209.39 C 760.64 209.41 763.18 209.43 765.72 209.47 C 765.77 216.15 765.78 222.84 765.70 229.53 C 763.17 229.59 760.64 229.62 758.13 229.74 C 758.09 231.65 758.07 233.56 758.06 235.48 L 756.66 235.40 C 756.62 233.48 756.61 231.57 756.60 229.65 C 754.03 229.60 751.47 229.59 748.92 229.54 C 748.92 222.86 748.83 216.18 748.94 209.51 C 751.45 209.45 753.96 209.43 756.48 209.40 C 756.53 204.67 756.44 199.95 756.60 195.22 Z" />
<path fill="#ff161f" opacity="1.00" d=" M 571.47 203.97 C 571.47 202.91 571.88 202.02 572.70 201.28 C 573.51 228.31 572.79 255.38 573.06 282.43 C 575.59 282.46 578.12 282.48 580.65 282.54 C 580.67 284.59 580.67 286.63 580.68 288.69 C 578.14 288.72 575.60 288.73 573.07 288.76 C 572.94 292.04 573.60 295.55 571.99 298.59 C 571.24 295.39 571.49 292.08 571.46 288.82 C 568.93 288.72 566.40 288.71 563.88 288.68 C 563.85 286.64 563.84 284.61 563.83 282.59 C 566.36 282.49 568.89 282.48 571.44 282.44 C 571.53 256.28 571.44 230.13 571.47 203.97 Z" />
<path fill="#ff161f" opacity="1.00" d=" M 812.36 211.98 C 814.04 213.10 813.49 215.24 813.62 216.96 C 813.59 220.61 813.57 224.27 813.61 227.93 C 816.14 227.97 818.68 228.01 821.23 228.11 C 821.29 239.53 821.24 250.96 821.25 262.39 C 818.70 262.50 816.15 262.52 813.62 262.58 C 813.56 266.97 813.59 271.36 813.56 275.75 C 813.22 275.77 812.52 275.81 812.17 275.83 C 812.11 271.40 812.16 266.98 812.09 262.55 C 809.53 262.51 806.97 262.48 804.43 262.37 C 804.39 250.95 804.38 239.52 804.44 228.10 C 807.00 228.01 809.56 227.96 812.13 227.92 C 812.22 222.61 811.92 217.28 812.36 211.98 Z" />
<path fill="#ff161f" opacity="1.00" d=" M 830.69 244.18 C 830.99 243.74 831.59 242.84 831.89 242.39 C 832.35 249.30 831.96 256.24 832.13 263.16 C 834.68 263.23 837.23 263.24 839.79 263.27 C 839.79 278.38 839.80 293.49 839.78 308.59 C 837.23 308.62 834.68 308.65 832.15 308.73 C 832.11 311.11 832.11 313.50 832.10 315.88 C 831.75 315.90 831.03 315.93 830.68 315.94 C 830.66 313.53 830.65 311.13 830.62 308.72 C 828.05 308.65 825.50 308.62 822.95 308.58 C 822.94 293.48 822.93 278.39 822.94 263.30 C 825.44 263.24 827.94 263.22 830.45 263.15 C 830.81 256.83 830.23 250.50 830.69 244.18 Z" />
<path fill="#ff161f" opacity="1.00" d=" M 600.85 249.09 C 606.45 248.83 612.06 248.96 617.67 248.94 C 617.69 259.11 617.75 269.29 617.66 279.47 C 615.18 279.53 612.71 279.55 610.24 279.56 C 610.03 281.41 609.81 283.26 609.47 285.10 C 608.43 283.43 608.42 281.45 608.29 279.57 C 605.83 279.55 603.38 279.55 600.93 279.52 C 600.78 269.38 600.93 259.23 600.85 249.09 Z" />
<path fill="#ff161f" opacity="1.00" d=" M 867.99 253.95 C 868.90 255.48 869.19 257.24 869.13 259.00 C 869.09 270.76 869.07 282.51 869.14 294.26 C 871.67 294.27 874.21 294.27 876.76 294.30 C 876.79 298.85 876.80 303.39 876.73 307.94 C 871.12 308.04 865.52 308.08 859.92 307.91 C 859.92 303.38 859.92 298.85 859.94 294.32 C 862.46 294.28 864.98 294.27 867.52 294.27 C 868.03 280.84 867.18 267.37 867.99 253.95 Z" />
<path fill="#ff161f" opacity="1.00" d=" M 257.31 296.14 C 257.65 296.13 258.34 296.12 258.69 296.11 C 258.81 306.46 258.67 316.80 258.77 327.15 C 261.33 327.17 263.89 327.18 266.46 327.27 C 266.54 334.46 266.52 341.65 266.49 348.85 C 260.86 349.18 255.22 349.06 249.60 348.93 C 249.39 341.71 249.55 334.49 249.49 327.27 C 252.07 327.20 254.66 327.17 257.24 327.14 C 257.32 316.81 257.20 306.47 257.31 296.14 Z" />
<path fill="#ff161f" opacity="1.00" d=" M 479.46 319.76 L 480.30 320.93 C 481.05 325.43 480.39 330.10 480.68 334.67 C 483.20 334.69 485.72 334.69 488.24 334.71 C 488.28 341.44 488.30 348.18 488.25 354.92 C 485.71 354.99 483.16 355.03 480.63 355.07 C 480.52 358.67 480.83 362.29 480.47 365.88 C 480.20 366.23 479.67 366.91 479.40 367.26 C 479.00 363.20 479.19 359.13 479.16 355.06 C 476.59 355.02 474.02 354.99 471.46 354.90 C 471.39 348.17 471.41 341.45 471.45 334.72 C 474.01 334.69 476.57 334.68 479.14 334.65 C 479.27 329.68 478.92 324.70 479.46 319.76 Z" />
<path fill="#ff161f" opacity="1.00" d=" M 294.10 327.94 C 294.32 327.34 294.78 326.14 295.01 325.54 C 295.26 326.13 295.75 327.33 296.00 327.93 C 298.49 327.96 300.98 328.01 303.47 328.12 C 303.54 349.11 303.59 370.10 303.43 391.10 C 300.89 391.10 298.35 391.09 295.82 391.11 C 295.61 393.77 295.18 399.10 294.97 401.76 C 294.79 399.10 294.43 393.77 294.25 391.11 C 291.72 391.10 289.20 391.11 286.68 391.10 C 286.64 370.09 286.62 349.09 286.67 328.08 C 289.14 328.00 291.62 327.97 294.10 327.94 Z" />
<path fill="#ff161f" opacity="1.00" d=" M 489.96 351.50 C 492.73 351.47 495.50 351.42 498.26 351.13 C 501.07 351.40 503.90 351.47 506.73 351.50 C 506.81 363.56 506.77 375.62 506.75 387.68 C 504.21 387.71 501.67 387.73 499.13 387.76 C 498.56 393.00 500.33 398.74 497.98 403.63 C 497.37 398.36 497.80 393.04 497.61 387.75 C 495.05 387.72 492.49 387.72 489.94 387.70 C 489.93 375.63 489.87 363.57 489.96 351.50 Z" />
<path fill="#ff161f" opacity="1.00" d=" M 405.25 373.84 C 405.50 373.35 406.00 372.38 406.24 371.89 C 407.14 381.61 406.34 391.41 406.67 401.16 C 409.55 401.24 412.55 400.95 415.31 402.00 C 412.59 403.26 409.55 402.85 406.66 402.94 C 406.49 407.63 406.96 412.37 406.23 417.03 C 404.01 412.76 405.68 407.58 405.18 402.93 C 402.44 402.91 399.69 402.91 396.96 402.67 C 398.68 399.94 402.51 401.70 405.14 401.19 C 405.28 392.07 405.01 382.95 405.25 373.84 Z" />
<path fill="#ff161f" opacity="1.00" d=" M 312.84 384.80 C 313.13 384.31 313.71 383.33 314.00 382.84 C 314.44 388.09 314.08 393.38 314.28 398.65 C 316.80 398.69 319.32 398.70 321.85 398.71 C 321.91 400.68 321.97 402.66 322.04 404.64 C 319.43 404.71 316.84 404.73 314.24 404.83 C 313.63 408.71 315.63 413.55 312.93 416.76 C 312.67 412.77 312.82 408.77 312.72 404.78 C 310.17 404.74 307.62 404.72 305.08 404.70 C 305.08 402.71 305.09 400.72 305.11 398.74 C 307.63 398.70 310.16 398.68 312.70 398.60 C 312.90 394.00 312.61 389.40 312.84 384.80 Z" />
<path fill="#ff161f" opacity="1.00" d=" M 349.34 392.81 C 349.59 391.09 349.84 389.39 350.21 387.70 C 350.70 389.38 351.07 391.09 351.43 392.81 C 353.88 392.80 356.33 392.81 358.79 392.82 C 358.86 422.50 358.76 452.17 358.83 481.84 C 356.29 481.84 353.75 481.84 351.21 481.88 C 351.03 484.73 351.71 487.84 349.99 490.35 C 349.61 487.53 349.66 484.69 349.64 481.87 C 347.08 481.84 344.51 481.83 341.95 481.79 C 342.00 452.13 341.79 422.47 342.07 392.82 C 344.49 392.82 346.91 392.81 349.34 392.81 Z" />
<path fill="#ff161f" opacity="1.00" d=" M 423.56 395.52 C 423.94 395.45 424.71 395.30 425.09 395.23 C 425.11 396.62 425.14 398.01 425.18 399.40 C 427.70 399.45 430.23 399.49 432.76 399.55 C 432.86 407.39 432.81 415.23 432.79 423.07 C 430.26 423.09 427.73 423.10 425.21 423.19 C 425.07 427.60 425.11 432.00 425.15 436.41 C 424.82 436.78 424.16 437.53 423.83 437.90 C 423.53 433.01 423.75 428.11 423.62 423.22 C 421.09 423.11 418.56 423.10 416.04 423.07 C 415.87 415.21 415.86 407.35 416.07 399.49 C 418.59 399.46 421.12 399.44 423.66 399.38 C 423.61 398.09 423.58 396.80 423.56 395.52 Z" />
<path fill="#ff161f" opacity="1.00" d=" M 164.83 423.20 L 166.26 423.10 C 166.28 432.48 166.26 441.86 166.27 451.25 C 168.82 451.33 171.37 451.34 173.92 451.39 C 174.08 456.30 174.07 461.21 173.95 466.12 C 171.41 466.14 168.88 466.15 166.35 466.28 C 166.28 468.38 166.26 470.48 166.24 472.59 L 164.87 472.74 C 164.82 470.56 164.80 468.38 164.74 466.21 C 162.22 466.15 159.70 466.13 157.18 466.12 C 157.12 461.22 157.11 456.32 157.18 451.42 C 159.71 451.35 162.25 451.33 164.79 451.24 C 164.84 441.90 164.79 432.55 164.83 423.20 Z" />
<path fill="#ff161f" opacity="1.00" d=" M 90.90 436.60 L 92.35 436.57 C 92.38 440.68 92.30 444.79 92.34 448.90 C 94.91 448.94 97.48 448.96 100.05 449.08 C 100.08 465.61 100.10 482.15 100.04 498.69 C 97.51 498.71 94.99 498.72 92.46 498.75 C 92.37 501.00 92.32 503.25 92.29 505.51 C 91.94 505.49 91.24 505.46 90.89 505.45 C 90.88 503.23 90.89 501.02 90.87 498.81 C 88.33 498.73 85.79 498.71 83.25 498.69 C 83.16 482.12 83.13 465.55 83.26 448.98 C 85.80 448.96 88.33 448.96 90.87 448.94 C 90.91 444.83 90.88 440.71 90.90 436.60 Z" />
<path fill="#ff161f" opacity="1.00" d=" M 128.68 466.88 C 129.09 467.97 129.47 469.05 129.86 470.17 C 132.26 470.17 134.66 470.19 137.06 470.23 C 137.11 490.34 137.09 510.45 137.07 530.56 C 134.50 530.61 131.93 530.62 129.37 530.68 C 129.34 533.73 129.45 536.78 129.41 539.84 C 129.03 539.85 128.27 539.88 127.89 539.90 C 127.88 536.81 127.88 533.74 127.88 530.66 C 125.33 530.63 122.79 530.62 120.25 530.59 C 120.16 510.46 120.20 490.33 120.21 470.21 C 122.69 470.19 125.16 470.19 127.64 470.18 C 127.90 469.35 128.42 467.70 128.68 466.88 Z" />
</g>
<g id="#00b53dff">
<path fill="#00b53d" opacity="1.00" d=" M 693.20 101.83 C 696.12 101.45 700.00 102.99 701.96 100.14 C 703.49 103.12 707.51 101.33 710.20 101.83 C 710.20 120.04 710.19 138.25 710.21 156.46 C 707.66 156.57 705.11 156.57 702.59 156.78 C 702.67 168.52 702.57 180.27 702.64 192.01 C 702.78 193.39 702.41 194.70 701.38 195.65 C 700.89 182.65 701.31 169.63 701.15 156.62 C 698.57 156.59 696.01 156.57 693.45 156.53 C 693.22 138.30 693.71 120.05 693.20 101.83 Z" />
<path fill="#00b53d" opacity="1.00" d=" M 775.48 148.19 C 777.06 150.13 776.54 152.70 776.63 155.01 C 776.62 165.58 776.51 176.16 776.70 186.73 C 779.19 186.76 781.68 186.77 784.18 186.78 C 784.25 199.92 784.20 213.07 784.21 226.21 C 781.81 226.23 779.42 226.25 777.04 226.30 C 776.57 227.62 776.16 228.96 775.68 230.27 C 775.51 229.27 775.17 227.27 775.00 226.28 C 772.47 226.25 769.95 226.24 767.44 226.22 C 767.44 213.08 767.28 199.93 767.51 186.78 C 770.03 186.77 772.56 186.76 775.09 186.73 C 775.48 173.89 774.75 161.02 775.48 148.19 Z" />
<path fill="#00b53d" opacity="1.00" d=" M 675.05 157.36 C 677.80 157.34 680.57 157.33 683.29 156.80 C 686.08 157.27 688.92 157.33 691.76 157.33 C 691.65 176.11 691.78 194.90 691.68 213.69 C 689.15 213.70 686.61 213.70 684.09 213.73 C 683.96 225.13 684.26 236.54 683.96 247.93 C 683.67 248.34 683.09 249.16 682.81 249.57 C 682.62 237.64 682.63 225.69 682.64 213.77 C 680.06 213.70 677.48 213.69 674.91 213.61 C 675.03 194.86 674.73 176.11 675.05 157.36 Z" />
<path fill="#00b53d" opacity="1.00" d=" M 738.45 169.19 C 739.28 170.29 739.77 171.58 739.62 172.99 C 739.59 189.29 739.59 205.60 739.61 221.90 C 742.24 221.94 744.88 221.99 747.52 222.16 C 747.46 226.34 742.23 224.05 739.61 224.67 C 739.54 229.79 739.62 234.92 739.61 240.04 C 739.75 241.39 739.35 242.66 738.41 243.65 C 737.91 237.33 738.29 230.97 738.14 224.64 C 735.61 224.62 733.08 224.62 730.56 224.59 C 730.47 223.99 730.30 222.79 730.22 222.19 C 732.82 221.99 735.43 221.95 738.05 221.90 C 738.50 204.33 737.74 186.74 738.45 169.19 Z" />
<path fill="#00b53d" opacity="1.00" d=" M 664.44 183.52 C 665.19 184.49 665.74 185.61 665.61 186.89 C 665.63 194.66 665.58 202.43 665.60 210.20 C 668.12 210.28 670.65 210.30 673.18 210.32 C 673.24 220.96 673.23 231.61 673.19 242.26 C 670.85 242.27 668.53 242.28 666.21 242.31 C 665.90 243.09 665.30 244.64 665.00 245.42 C 664.68 244.67 664.05 243.19 663.73 242.45 C 661.31 242.15 658.86 242.27 656.43 242.24 C 656.41 231.61 656.36 220.98 656.45 210.35 C 659.02 210.31 661.59 210.29 664.16 210.26 C 664.32 201.35 663.83 192.42 664.44 183.52 Z" />
<path fill="#00b53d" opacity="1.00" d=" M 646.03 226.33 C 648.22 231.27 646.54 236.94 647.11 242.19 C 649.63 242.31 652.16 242.33 654.69 242.38 C 654.77 251.27 654.79 260.16 654.67 269.05 C 649.08 269.05 643.49 269.19 637.91 268.94 C 637.94 260.10 637.89 251.26 637.94 242.41 C 640.51 242.37 643.10 242.28 645.65 241.86 C 645.89 236.68 645.11 231.46 646.03 226.33 Z" />
<path fill="#00b53d" opacity="1.00" d=" M 590.66 228.65 C 592.68 235.15 591.03 242.20 591.62 248.92 C 594.13 248.93 596.65 248.93 599.17 248.94 C 599.15 260.70 599.18 272.47 599.17 284.23 C 596.67 284.41 594.16 284.55 591.67 284.64 C 591.55 286.70 591.88 288.99 590.39 290.68 C 590.17 288.60 590.09 286.51 590.03 284.43 C 587.47 284.32 584.92 284.30 582.37 284.26 C 582.37 272.52 582.33 260.78 582.39 249.04 C 584.94 248.95 587.49 248.92 590.05 248.86 C 590.51 242.13 589.52 235.32 590.66 228.65 Z" />
<path fill="#00b53d" opacity="1.00" d=" M 553.50 240.67 C 553.92 241.69 554.63 242.68 554.56 243.86 C 554.68 256.80 554.42 269.75 554.68 282.69 C 557.16 282.72 559.65 282.73 562.14 282.76 C 562.16 296.73 562.15 310.69 562.14 324.66 C 559.67 324.71 557.21 324.74 554.76 324.91 C 554.57 326.50 554.45 328.14 553.68 329.58 C 553.35 328.00 553.05 326.41 552.80 324.83 C 550.32 324.73 547.84 324.71 545.37 324.67 C 545.32 310.71 545.33 296.75 545.38 282.79 C 547.95 282.74 550.54 282.70 553.12 282.56 C 553.40 268.60 552.68 254.60 553.50 240.67 Z" />
<path fill="#00b53d" opacity="1.00" d=" M 849.42 263.35 C 850.19 264.07 850.58 264.93 850.59 265.95 C 850.69 272.01 850.56 278.08 850.63 284.14 C 853.15 284.19 855.69 284.20 858.23 284.23 C 858.23 294.85 858.25 305.47 858.21 316.10 C 855.71 316.11 853.22 316.12 850.74 316.15 C 850.55 320.35 850.62 324.56 850.60 328.76 C 850.25 328.76 849.55 328.76 849.20 328.75 C 849.17 324.55 849.23 320.34 849.03 316.14 C 846.50 316.12 843.98 316.12 841.47 316.12 C 841.37 305.50 841.36 294.87 841.49 284.25 C 844.03 284.20 846.58 284.18 849.14 284.15 C 849.30 277.22 848.92 270.27 849.42 263.35 Z" />
<path fill="#00b53d" opacity="1.00" d=" M 626.57 268.27 C 626.95 267.50 627.69 265.95 628.07 265.18 C 628.27 265.95 628.67 267.49 628.87 268.26 C 631.30 268.30 633.73 268.32 636.17 268.36 C 636.20 271.42 636.21 274.48 636.19 277.54 C 633.71 277.59 631.23 277.62 628.76 277.67 C 628.55 279.55 628.82 281.64 627.51 283.21 C 627.30 281.36 627.15 279.52 627.05 277.67 C 624.51 277.64 621.97 277.62 619.43 277.58 C 619.37 274.50 619.38 271.43 619.43 268.36 C 621.81 268.32 624.19 268.29 626.57 268.27 Z" />
<path fill="#00b53d" opacity="1.00" d=" M 275.85 291.86 L 277.19 291.97 C 277.29 303.98 277.16 316.00 277.25 328.02 C 279.79 328.10 282.33 328.13 284.87 328.16 C 284.94 335.06 284.82 341.97 284.96 348.88 C 282.40 349.00 279.84 349.04 277.29 349.15 C 277.16 353.58 277.44 358.03 276.94 362.44 C 274.83 358.33 276.18 353.52 275.83 349.10 C 273.30 349.06 270.77 349.03 268.24 348.96 C 268.15 341.98 268.11 335.00 268.24 328.02 C 270.76 327.99 273.28 327.97 275.80 327.94 C 275.88 315.92 275.79 303.89 275.85 291.86 Z" />
<path fill="#00b53d" opacity="1.00" d=" M 238.87 308.95 C 238.76 307.38 239.29 305.92 239.95 304.53 C 240.73 312.06 239.94 319.65 240.45 327.20 C 242.97 327.22 245.50 327.23 248.02 327.28 C 248.02 333.93 248.13 340.58 247.93 347.23 C 245.44 347.26 242.94 347.27 240.45 347.34 C 240.31 349.56 240.19 351.78 239.93 353.99 C 238.66 351.96 238.86 349.54 238.81 347.27 C 236.28 347.26 233.76 347.25 231.23 347.24 C 231.22 340.57 231.20 333.91 231.25 327.24 C 233.78 327.22 236.32 327.21 238.85 327.22 C 238.93 321.13 238.85 315.04 238.87 308.95 Z" />
<path fill="#00b53d" opacity="1.00" d=" M 460.95 320.77 C 461.21 321.27 461.74 322.27 462.00 322.77 C 462.30 328.43 461.94 334.10 462.19 339.76 C 464.70 339.82 467.21 339.82 469.73 339.84 C 469.80 353.55 469.79 367.26 469.70 380.97 C 467.30 381.02 464.90 381.05 462.50 381.08 C 462.15 382.35 461.80 383.63 461.46 384.91 C 460.99 383.64 460.62 382.33 460.22 381.06 C 457.79 381.04 455.37 381.00 452.95 380.93 C 453.00 367.24 452.83 353.55 453.05 339.86 C 455.57 339.82 458.10 339.80 460.62 339.72 C 460.90 333.40 460.43 327.07 460.95 320.77 Z" />
<path fill="#00b53d" opacity="1.00" d=" M 526.89 323.13 C 532.49 323.15 538.08 322.88 543.68 323.01 C 543.74 330.25 543.67 337.50 543.71 344.74 C 541.16 344.76 538.61 344.78 536.07 344.82 C 536.07 348.41 536.16 352.01 535.60 355.57 C 533.40 352.44 534.84 348.34 534.45 344.80 C 531.93 344.78 529.41 344.77 526.89 344.74 C 526.88 337.54 526.91 330.33 526.89 323.13 Z" />
<path fill="#00b53d" opacity="1.00" d=" M 516.20 327.22 C 516.54 327.23 517.23 327.26 517.57 327.27 C 517.63 333.11 517.46 338.95 517.70 344.79 C 520.19 344.81 522.69 344.82 525.19 344.84 C 525.22 357.44 525.22 370.05 525.18 382.66 C 522.68 382.68 520.19 382.70 517.70 382.78 C 517.53 384.67 518.00 386.89 516.39 388.31 C 516.23 386.44 516.14 384.58 516.09 382.71 C 513.54 382.69 510.99 382.68 508.44 382.64 C 508.39 370.03 508.34 357.43 508.47 344.84 C 511.02 344.82 513.58 344.80 516.14 344.78 C 516.21 338.92 516.13 333.07 516.20 327.22 Z" />
<path fill="#00b53d" opacity="1.00" d=" M 220.56 334.65 C 220.82 334.36 221.33 333.78 221.58 333.49 C 221.96 338.06 221.74 342.64 221.81 347.22 C 224.38 347.25 226.95 347.28 229.53 347.37 C 229.61 352.10 229.60 356.83 229.51 361.56 C 226.95 361.61 224.38 361.63 221.82 361.67 C 221.77 367.46 221.80 373.26 221.83 379.05 C 221.76 381.10 222.13 383.34 220.74 385.08 C 219.94 377.34 220.58 369.52 220.35 361.75 C 217.82 361.64 215.29 361.63 212.77 361.60 C 212.75 356.85 212.73 352.10 212.74 347.36 C 215.28 347.29 217.82 347.26 220.36 347.19 C 220.48 343.01 220.03 338.78 220.56 334.65 Z" />
<path fill="#00b53d" opacity="1.00" d=" M 331.29 344.04 C 331.63 344.06 332.32 344.08 332.66 344.09 C 332.76 358.32 332.58 372.55 332.76 386.78 C 335.26 386.82 337.76 386.84 340.26 386.86 C 340.30 392.80 340.30 398.75 340.26 404.69 C 337.75 404.71 335.24 404.73 332.74 404.79 C 332.69 406.07 332.66 407.35 332.63 408.64 C 332.29 408.64 331.62 408.64 331.28 408.64 C 331.26 407.35 331.23 406.06 331.21 404.78 C 328.65 404.73 326.08 404.70 323.52 404.67 C 323.42 398.73 323.37 392.79 323.55 386.85 C 326.10 386.85 328.64 386.83 331.20 386.80 C 331.34 372.55 331.17 358.30 331.29 344.04 Z" />
<path fill="#00b53d" opacity="1.00" d=" M 201.31 363.21 C 201.86 362.54 202.42 361.88 202.97 361.22 C 203.10 361.72 203.36 362.72 203.49 363.22 C 206.01 363.23 208.53 363.23 211.05 363.26 C 211.06 396.30 211.00 429.33 211.08 462.36 C 205.48 462.74 199.86 462.50 194.25 462.54 C 194.19 429.45 194.20 396.36 194.24 363.27 C 196.60 363.24 198.95 363.23 201.31 363.21 Z" />
<path fill="#00b53d" opacity="1.00" d=" M 386.68 404.32 C 387.15 394.61 385.91 384.75 387.36 375.14 C 388.40 378.34 388.11 381.73 388.12 385.04 C 388.09 391.47 388.08 397.91 388.14 404.35 C 390.67 404.37 393.21 404.38 395.75 404.43 C 395.81 422.98 395.76 441.52 395.78 460.07 C 390.22 460.08 384.66 460.07 379.10 460.07 C 378.78 441.54 379.04 423.00 378.98 404.47 C 381.54 404.39 384.11 404.39 386.68 404.32 Z" />
<path fill="#00b53d" opacity="1.00" d=" M 434.49 380.29 C 440.09 379.82 445.66 379.86 451.26 380.26 C 451.25 395.92 451.27 411.59 451.25 427.25 C 448.79 427.25 446.33 427.23 443.88 427.23 C 443.67 429.35 443.24 433.58 443.03 435.70 C 442.78 433.60 442.30 429.38 442.06 427.27 C 439.54 427.24 437.03 427.24 434.52 427.22 C 434.35 411.58 434.36 395.93 434.49 380.29 Z" />
<path fill="#00b53d" opacity="1.00" d=" M 368.49 445.68 C 370.80 448.73 369.21 452.93 369.64 456.45 C 372.16 456.67 374.70 456.73 377.24 456.79 C 377.26 460.44 377.27 464.10 377.22 467.76 C 374.70 467.76 372.18 467.76 369.66 467.78 C 369.23 471.07 370.80 475.10 368.42 477.85 C 368.14 474.50 368.22 471.14 368.20 467.79 C 365.63 467.76 363.06 467.76 360.49 467.71 C 360.39 464.05 360.39 460.40 360.60 456.75 C 363.13 456.73 365.66 456.71 368.19 456.69 C 368.23 453.01 368.08 449.34 368.49 445.68 Z" />
<path fill="#00b53d" opacity="1.00" d=" M 109.39 450.86 C 109.27 449.60 109.81 448.48 110.47 447.47 C 111.31 456.91 110.43 466.42 110.95 475.88 C 113.47 475.91 116.00 475.91 118.53 475.96 C 118.63 482.17 118.62 488.37 118.53 494.58 C 115.96 494.62 113.40 494.62 110.83 494.65 C 110.50 499.95 111.63 505.43 110.05 510.59 C 108.70 505.41 109.65 499.99 109.35 494.71 C 106.85 494.63 104.34 494.61 101.83 494.57 C 101.72 488.36 101.78 482.14 101.79 475.93 C 104.31 475.91 106.83 475.89 109.36 475.88 C 109.45 467.54 109.36 459.20 109.39 450.86 Z" />
<path fill="#00b53d" opacity="1.00" d=" M 138.78 450.87 C 144.33 450.87 149.89 450.92 155.45 450.82 C 155.76 478.32 155.52 505.82 155.57 533.32 C 149.97 533.85 144.37 533.23 138.77 533.28 C 138.79 505.81 138.77 478.34 138.78 450.87 Z" />
<path fill="#00b53d" opacity="1.00" d=" M 183.32 458.30 C 183.66 458.28 184.35 458.26 184.70 458.24 C 184.73 459.60 184.75 460.97 184.78 462.34 C 187.32 462.40 189.86 462.41 192.40 462.45 C 192.49 464.70 192.49 466.96 192.41 469.23 C 189.87 469.22 187.33 469.24 184.79 469.27 C 184.71 473.41 184.93 477.57 184.49 481.70 C 182.06 478.10 183.84 473.33 183.31 469.26 C 180.78 469.23 178.25 469.22 175.72 469.22 C 175.72 466.96 175.72 464.70 175.73 462.44 C 178.26 462.42 180.79 462.41 183.32 462.39 C 183.31 461.02 183.31 459.65 183.32 458.30 Z" />
</g>
</svg>
