<?xml version="1.0" encoding="UTF-8" ?>
<!DOCTYPE svg PUBLIC "-//W3C//DTD SVG 1.1//EN" "http://www.w3.org/Graphics/SVG/1.1/DTD/svg11.dtd">
<svg width="381pt" height="200pt" viewBox="0 0 381 200" version="1.1" xmlns="http://www.w3.org/2000/svg">
<g id="#00e02fff">
<path fill="#00e02f" opacity="1.00" d=" M 310.74 0.00 L 316.86 0.00 C 318.67 1.47 321.05 3.25 320.74 5.90 C 320.43 10.51 319.29 15.01 318.57 19.57 C 317.14 27.00 316.51 34.65 313.86 41.79 C 312.28 35.18 311.54 28.41 310.22 21.75 C 309.38 16.84 308.05 11.97 307.96 6.96 C 307.79 4.31 309.46 2.15 310.74 0.00 Z" />
<path fill="#00e02f" opacity="1.00" d=" M 249.65 18.65 C 251.73 16.23 256.31 16.11 258.25 18.76 C 262.09 23.32 265.25 28.41 268.77 33.22 C 272.21 38.60 276.53 43.40 279.51 49.08 C 271.62 44.24 264.34 38.48 256.61 33.39 C 253.71 31.28 250.50 29.43 248.25 26.58 C 247.72 23.95 247.33 20.56 249.65 18.65 Z" />
<path fill="#00e02f" opacity="1.00" d=" M 366.88 22.90 C 368.72 20.41 370.60 17.08 374.08 16.91 C 377.08 16.58 379.35 18.96 381.00 21.14 L 381.00 25.85 C 378.06 29.39 373.99 31.66 370.31 34.31 C 363.08 39.30 356.14 44.74 348.55 49.18 C 354.45 40.28 360.86 31.72 366.88 22.90 Z" />
<path fill="#00e02f" opacity="1.00" d=" M 273.68 65.69 C 284.24 55.77 298.24 48.63 312.99 48.92 C 326.43 48.37 339.96 53.11 350.21 61.80 C 354.91 66.12 359.55 70.64 362.84 76.17 C 371.37 90.04 373.48 107.72 368.20 123.15 C 365.80 131.20 361.00 138.27 355.54 144.55 C 350.08 150.52 342.58 154.13 337.21 160.21 C 333.46 163.78 331.06 168.99 326.04 171.04 C 318.79 174.02 310.37 173.68 303.13 170.86 C 297.79 168.82 295.55 163.12 291.35 159.65 C 283.70 152.84 274.30 147.84 268.41 139.18 C 273.34 138.74 278.26 139.14 283.16 139.69 C 286.69 140.09 290.65 137.88 293.82 140.17 C 299.88 143.95 304.82 149.16 309.63 154.38 C 311.74 157.05 315.67 156.13 318.59 155.71 C 321.99 152.73 324.27 148.68 327.74 145.74 C 333.30 140.22 340.83 136.94 345.59 130.60 C 349.23 125.45 352.10 119.63 353.44 113.44 C 355.65 101.74 352.56 89.20 345.05 79.94 C 332.17 64.21 306.61 60.95 290.41 73.42 C 285.87 76.91 282.08 81.33 279.31 86.34 C 277.34 90.32 272.79 91.54 269.09 93.32 C 269.05 86.56 268.76 79.79 269.08 73.04 C 269.22 69.95 271.66 67.74 273.68 65.69 Z" />
<path fill="#00e02f" opacity="1.00" d=" M 124.52 79.45 C 127.93 77.30 133.46 78.86 134.08 83.19 C 135.27 87.27 131.50 91.64 127.26 90.71 C 121.76 90.42 120.20 82.34 124.52 79.45 Z" />
<path fill="#00e02f" opacity="1.00" d=" M 69.82 80.26 C 76.53 80.27 83.23 80.28 89.94 80.25 C 90.11 92.53 89.92 104.81 89.99 117.08 C 90.11 119.29 90.08 122.44 92.67 123.24 C 96.52 124.25 100.53 123.27 104.42 123.01 C 104.69 126.11 105.00 129.20 105.30 132.30 C 99.24 133.56 92.56 134.92 86.65 132.35 C 81.77 129.93 80.53 123.98 80.54 119.01 C 80.54 109.05 80.52 99.08 80.63 89.12 C 77.00 89.03 73.36 88.99 69.73 88.94 C 69.74 86.05 69.78 83.15 69.82 80.26 Z" />
<path fill="#00e02f" opacity="1.00" d=" M 251.27 80.27 C 254.49 80.27 257.71 80.26 260.94 80.23 C 261.07 97.82 260.99 115.40 260.98 132.98 C 258.27 133.11 255.56 133.24 252.86 133.36 C 252.32 130.91 251.84 128.44 251.35 125.98 C 249.88 128.48 248.82 131.65 245.98 132.92 C 241.06 134.79 234.93 133.64 231.39 129.63 C 227.82 125.70 226.91 120.16 226.73 115.04 C 226.68 109.55 227.52 103.57 231.30 99.32 C 234.67 95.33 240.54 94.09 245.43 95.57 C 248.38 96.56 249.53 99.76 251.17 102.11 C 251.35 94.83 251.26 87.55 251.27 80.27 M 241.44 104.42 C 235.79 106.96 235.82 114.64 237.23 119.76 C 238.27 124.69 244.76 126.18 248.57 123.53 C 250.52 122.01 250.99 119.38 251.25 117.06 C 251.47 113.69 251.50 110.08 249.90 107.01 C 248.30 104.10 244.37 103.40 241.44 104.42 Z" />
<path fill="#00e02f" opacity="1.00" d=" M 307.02 81.03 C 312.08 80.93 317.21 80.67 322.20 81.74 C 320.13 90.72 321.68 99.99 320.21 109.05 C 319.51 112.21 321.12 116.33 318.67 118.79 C 315.43 119.25 312.15 119.01 308.89 119.03 C 307.24 112.26 308.56 105.26 307.56 98.42 C 306.69 92.67 307.00 86.83 307.02 81.03 Z" />
<path fill="#00e02f" opacity="1.00" d=" M 156.32 96.25 C 160.57 94.49 166.83 93.93 169.85 98.13 C 170.80 99.40 171.63 100.76 172.50 102.10 C 172.68 99.99 172.88 97.88 173.10 95.77 C 176.05 95.75 179.01 95.74 181.97 95.75 C 181.97 107.19 182.11 118.64 181.93 130.08 C 181.82 135.98 180.51 142.76 175.18 146.20 C 168.10 150.73 159.29 149.51 151.31 149.92 C 151.26 147.21 151.19 144.51 151.09 141.81 C 156.77 141.29 162.81 142.42 168.20 140.19 C 172.97 137.63 172.22 131.47 172.32 126.92 C 170.58 129.20 169.20 132.18 166.31 133.18 C 161.50 134.64 155.78 133.48 152.39 129.63 C 148.38 125.14 147.65 118.75 147.75 112.97 C 147.90 106.58 150.11 99.21 156.32 96.25 M 162.44 104.42 C 156.80 106.96 156.82 114.63 158.23 119.76 C 159.26 124.69 165.77 126.19 169.57 123.53 C 171.52 122.00 171.99 119.37 172.25 117.06 C 172.47 113.69 172.50 110.08 170.90 107.01 C 169.30 104.10 165.37 103.40 162.44 104.42 Z" />
<path fill="#00e02f" opacity="1.00" d=" M 191.99 95.00 C 198.65 94.96 205.57 94.69 211.89 97.17 C 216.00 98.81 219.30 102.59 219.84 107.05 C 220.47 112.61 220.06 118.21 220.12 123.78 C 221.85 124.19 223.56 124.67 225.29 125.08 C 225.32 127.70 225.36 130.32 225.37 132.94 C 220.89 132.98 216.42 133.15 211.96 133.37 C 211.77 130.85 211.59 128.33 211.41 125.80 C 209.46 128.62 207.83 132.24 204.26 133.29 C 198.96 134.91 192.10 134.12 188.62 129.38 C 185.20 123.95 186.39 115.53 192.13 112.11 C 197.94 108.52 205.06 109.73 211.53 109.69 C 210.27 107.95 209.19 105.69 206.90 105.14 C 201.91 103.75 196.64 104.06 191.51 103.95 C 191.64 100.96 191.81 97.98 191.99 95.00 M 198.48 118.43 C 196.14 119.44 196.05 122.61 197.20 124.55 C 199.91 126.72 203.88 126.31 206.82 124.84 C 209.53 123.57 210.36 120.48 211.42 117.95 C 207.15 117.61 202.56 116.69 198.48 118.43 Z" />
<path fill="#00e02f" opacity="1.00" d=" M 280.31 95.33 C 285.67 94.38 291.75 95.31 295.79 99.20 C 299.46 102.76 300.80 108.01 300.98 112.97 C 301.20 118.42 300.34 124.35 296.63 128.59 C 291.84 134.21 283.22 134.97 276.67 132.34 C 271.22 130.14 268.11 124.41 267.47 118.79 C 266.86 113.18 267.13 107.11 270.11 102.15 C 272.26 98.47 276.14 96.01 280.31 95.33 M 281.49 104.46 C 278.50 105.67 277.33 109.09 277.03 112.05 C 276.78 115.45 276.87 119.20 278.87 122.12 C 281.28 125.79 287.64 125.68 289.67 121.67 C 291.84 117.48 291.83 112.23 290.10 107.88 C 288.82 104.55 284.69 103.13 281.49 104.46 Z" />
<path fill="#00e02f" opacity="1.00" d=" M 112.24 95.84 C 119.23 95.65 126.22 95.67 133.20 95.80 C 133.36 105.25 133.24 114.71 133.26 124.16 C 136.90 124.24 140.54 124.28 144.18 124.30 C 144.22 127.19 144.26 130.08 144.26 132.97 C 132.84 133.02 121.41 133.01 109.98 132.98 C 110.00 130.07 110.02 127.17 110.05 124.26 C 114.61 124.30 119.18 124.28 123.74 124.16 C 123.74 117.66 123.72 111.15 123.75 104.65 C 119.93 104.52 116.10 104.49 112.28 104.53 C 112.28 101.63 112.26 98.74 112.24 95.84 Z" />
<path fill="#00e02f" opacity="1.00" d=" M 307.22 123.33 C 308.74 121.21 311.76 122.17 313.99 121.86 C 316.22 122.18 319.28 121.17 320.76 123.35 C 321.30 126.81 321.22 130.36 320.90 133.84 C 320.92 135.36 319.30 136.16 317.96 136.04 C 314.28 136.34 310.59 135.88 307.01 135.09 C 307.02 131.17 306.68 127.23 307.22 123.33 Z" />
<path fill="#00e02f" opacity="1.00" d=" M 307.37 175.37 C 311.46 174.62 315.70 174.75 319.82 175.20 C 322.94 175.88 326.44 178.46 326.11 182.00 C 326.36 186.60 321.12 189.29 317.06 189.07 C 312.97 188.95 308.28 189.87 304.75 187.30 C 302.31 185.74 302.92 182.53 302.95 180.07 C 302.83 177.58 305.27 176.02 307.37 175.37 Z" />
<path fill="#00e02f" opacity="1.00" d=" M 306.29 193.53 C 310.68 189.82 316.61 190.81 321.78 191.83 C 320.85 194.90 319.76 198.16 316.91 200.00 L 311.13 200.00 C 309.47 197.87 307.86 195.71 306.29 193.53 Z" />
</g>
<g id="#131a17ff">
<path fill="#131a17" opacity="1.00" d=" M 50.62 77.64 C 52.07 75.33 55.93 75.27 57.47 77.50 C 60.41 81.07 62.76 85.08 65.27 88.96 C 63.25 88.96 61.22 88.94 59.20 88.94 C 57.53 86.25 55.84 83.58 54.12 80.93 C 52.36 83.60 50.61 86.28 48.88 88.98 C 46.87 88.97 44.85 88.98 42.84 88.98 C 45.39 85.17 47.72 81.19 50.62 77.64 Z" />
<path fill="#131a17" opacity="1.00" d=" M 0.00 83.00 C 12.00 83.03 24.00 82.94 36.01 83.03 C 36.00 84.78 36.00 86.54 36.00 88.29 C 31.04 88.40 26.08 88.43 21.13 88.38 C 20.78 103.25 21.17 118.13 20.95 133.00 C 18.98 133.00 17.02 133.00 15.05 133.00 C 14.83 118.12 15.22 103.24 14.87 88.37 C 9.91 88.40 4.96 88.39 0.00 88.36 L 0.00 83.00 Z" />
<path fill="#131a17" opacity="1.00" d=" M 49.40 95.57 C 55.12 94.07 62.08 95.27 65.89 100.12 C 70.17 105.37 70.52 112.59 69.84 119.05 C 69.22 124.68 66.17 130.56 60.70 132.79 C 54.53 135.27 46.49 134.19 42.19 128.78 C 37.81 123.34 37.66 115.83 38.44 109.21 C 39.15 103.11 43.20 97.06 49.40 95.57 M 51.39 101.32 C 47.33 102.34 45.17 106.57 44.59 110.41 C 43.99 115.05 44.07 120.20 46.72 124.24 C 49.67 129.03 57.55 129.40 60.96 124.94 C 63.33 121.86 63.87 117.79 63.85 114.01 C 63.76 110.32 63.09 106.31 60.46 103.52 C 58.19 101.10 54.50 100.50 51.39 101.32 Z" />
</g>
</svg>
