<?xml version="1.0" encoding="UTF-8" ?>
<!DOCTYPE svg PUBLIC "-//W3C//DTD SVG 1.1//EN" "http://www.w3.org/Graphics/SVG/1.1/DTD/svg11.dtd">
<svg width="512pt" height="512pt" viewBox="0 0 512 512" version="1.1" xmlns="http://www.w3.org/2000/svg">
<g id="#00e02fff">
<path fill="#00e02f" opacity="1.00" d=" M 369.50 144.92 C 371.52 145.00 373.55 145.08 375.56 145.37 C 376.61 146.34 377.62 147.37 378.58 148.43 C 378.80 149.65 378.90 150.89 378.97 152.13 C 377.79 153.97 378.04 156.21 377.76 158.27 C 376.99 160.19 376.98 162.26 376.73 164.28 C 375.99 166.69 375.96 169.24 375.35 171.68 C 375.03 173.37 374.77 175.07 374.26 176.72 C 374.00 178.74 374.04 180.84 373.20 182.73 C 373.09 183.82 372.99 184.91 372.91 186.00 C 372.44 186.00 371.52 186.00 371.05 186.00 C 371.00 184.25 370.95 182.50 370.85 180.75 C 369.90 178.88 370.01 176.74 369.75 174.72 C 369.01 172.80 368.97 170.72 368.74 168.70 C 368.20 166.57 367.81 164.41 367.21 162.29 C 367.07 160.77 366.94 159.24 366.79 157.73 C 365.47 154.82 366.12 151.54 366.00 148.46 C 367.18 147.29 368.34 146.11 369.50 144.92 Z" />
<path fill="#00e02f" opacity="1.00" d=" M 309.45 162.00 C 311.19 161.99 312.93 161.99 314.68 161.98 C 316.01 163.46 317.36 164.95 318.40 166.66 C 319.15 167.56 319.91 168.45 320.68 169.34 C 321.53 170.80 322.48 172.20 323.32 173.68 C 324.09 174.55 324.88 175.43 325.66 176.31 C 327.10 178.84 328.89 181.16 330.34 183.69 C 331.12 184.57 331.90 185.45 332.70 186.33 C 333.59 187.90 334.60 189.41 335.47 191.00 C 335.85 191.01 336.60 191.01 336.97 191.02 C 337.00 191.82 337.04 193.43 337.06 194.24 C 335.84 193.32 334.63 192.41 333.33 191.62 C 332.44 190.86 331.56 190.10 330.68 189.34 C 328.14 187.90 325.85 186.09 323.31 184.66 C 322.43 183.89 321.56 183.11 320.69 182.34 C 318.15 180.90 315.85 179.11 313.33 177.65 C 312.43 176.90 311.54 176.14 310.65 175.40 C 308.94 174.36 307.46 173.01 305.98 171.68 C 305.99 169.60 305.99 167.52 306.00 165.45 C 307.16 164.31 308.31 163.16 309.45 162.00 Z" />
<path fill="#00e02f" opacity="1.00" d=" M 429.41 162.35 C 431.44 161.99 433.53 161.95 435.57 162.37 C 436.61 163.36 437.63 164.38 438.63 165.43 C 439.03 167.47 439.02 169.56 438.64 171.60 C 436.03 174.45 432.54 176.29 429.31 178.33 C 428.42 179.11 427.55 179.90 426.68 180.69 C 425.20 181.53 423.79 182.47 422.32 183.31 C 421.44 184.10 420.57 184.88 419.69 185.66 C 417.16 187.09 414.86 188.86 412.38 190.36 C 410.61 192.02 408.58 193.35 406.40 194.38 C 407.16 192.60 408.34 191.06 409.59 189.59 C 410.50 188.19 411.56 186.89 412.65 185.63 C 414.13 183.13 415.91 180.84 417.34 178.31 C 418.10 177.43 418.88 176.56 419.65 175.68 C 421.09 173.18 422.74 170.80 424.64 168.62 C 426.00 166.37 427.38 164.08 429.41 162.35 Z" />
<path fill="#00e02f" opacity="1.00" d=" M 363.74 194.15 C 369.69 194.19 375.84 193.27 381.68 194.67 C 383.32 194.96 384.97 195.23 386.60 195.62 C 387.84 195.93 389.10 196.22 390.32 196.65 C 392.35 197.63 394.50 198.33 396.59 199.20 C 400.15 200.93 403.32 203.32 406.72 205.33 C 410.45 208.89 414.11 212.54 417.67 216.28 C 419.68 219.68 422.05 222.86 423.83 226.40 C 424.36 227.75 424.88 229.11 425.31 230.50 C 425.80 231.85 426.24 233.22 426.76 234.57 C 426.91 235.02 427.20 235.91 427.34 236.36 C 427.93 238.28 428.03 240.29 428.25 242.28 C 429.76 247.08 428.80 252.28 428.85 257.24 C 427.88 259.56 427.97 262.11 427.47 264.53 C 427.05 265.55 426.62 266.56 426.18 267.57 C 426.09 268.04 425.92 268.97 425.83 269.44 C 425.00 271.45 424.28 273.50 423.35 275.48 C 421.72 278.70 419.51 281.57 417.67 284.67 C 416.56 285.88 415.45 287.09 414.38 288.32 C 413.56 290.14 412.14 291.57 410.30 292.37 C 408.73 293.78 407.22 295.25 405.69 296.70 C 404.20 297.53 402.78 298.47 401.30 299.30 C 397.92 302.55 394.54 305.82 391.38 309.29 C 390.08 311.86 387.87 313.79 385.56 315.43 C 383.63 316.23 381.65 316.91 379.62 317.43 C 375.30 318.32 370.70 318.39 366.39 317.39 C 365.04 317.04 363.68 316.72 362.38 316.25 C 361.93 316.15 361.04 315.95 360.60 315.84 C 359.50 315.06 358.39 314.32 357.20 313.70 C 356.27 312.65 355.39 311.55 354.59 310.41 C 353.54 309.12 352.50 307.83 351.58 306.46 C 348.99 304.72 347.02 302.23 344.37 300.59 C 343.45 299.85 342.54 299.11 341.64 298.39 C 340.22 297.49 338.90 296.45 337.58 295.42 C 333.35 292.26 329.49 288.45 326.40 284.16 C 330.81 284.28 335.62 283.05 339.77 284.92 C 341.78 284.95 343.95 285.28 345.76 284.13 C 347.29 284.04 348.83 284.00 350.37 283.99 C 352.32 285.61 354.46 286.97 356.41 288.60 C 360.98 292.11 365.34 296.21 368.59 301.00 C 371.29 301.00 373.98 301.00 376.68 301.02 C 378.01 299.53 379.38 298.05 380.39 296.31 C 383.31 293.25 386.02 289.83 389.67 287.61 C 390.91 286.53 392.11 285.41 393.33 284.30 C 394.80 283.46 396.22 282.52 397.71 281.70 C 399.77 279.77 401.76 277.77 403.70 275.71 C 404.48 274.25 405.42 272.88 406.29 271.47 C 407.09 269.82 407.90 268.17 408.79 266.57 C 409.34 265.23 409.89 263.88 410.39 262.52 C 410.76 261.23 411.05 259.92 411.36 258.61 C 412.37 253.65 412.49 248.26 411.30 243.33 C 411.05 241.70 410.83 240.07 410.45 238.47 C 409.84 236.78 409.09 235.15 408.28 233.55 C 407.62 232.20 406.96 230.84 406.32 229.48 C 405.13 227.73 403.73 226.14 402.67 224.30 C 401.11 222.53 399.44 220.81 397.42 219.57 C 394.84 217.20 391.63 215.81 388.57 214.20 C 387.22 213.65 385.88 213.11 384.52 212.61 C 383.23 212.22 381.91 211.94 380.61 211.64 C 375.01 210.58 368.99 210.59 363.39 211.64 C 362.07 211.94 360.76 212.23 359.48 212.62 C 358.11 213.10 356.76 213.65 355.42 214.20 C 354.46 214.72 353.50 215.23 352.53 215.73 C 351.11 216.57 349.74 217.50 348.30 218.31 C 345.55 220.88 342.89 223.56 340.30 226.29 C 339.50 227.74 338.58 229.12 337.77 230.56 C 336.83 232.97 334.97 234.77 332.61 235.81 C 332.11 236.04 331.10 236.50 330.59 236.73 C 329.40 237.27 328.23 237.82 327.04 238.34 C 327.17 230.75 326.55 223.10 327.39 215.53 C 330.14 212.25 333.00 208.90 336.66 206.60 C 337.55 205.84 338.44 205.08 339.33 204.32 C 340.76 203.50 342.13 202.58 343.56 201.76 C 344.92 201.00 346.23 200.18 347.50 199.28 C 348.44 198.98 349.39 198.66 350.33 198.32 C 351.69 197.71 353.07 197.12 354.49 196.64 C 355.48 196.30 356.48 195.96 357.48 195.63 C 359.55 195.05 361.73 194.96 363.74 194.15 Z" />
<path fill="#00e02f" opacity="1.00" d=" M 183.22 224.10 C 186.88 222.19 192.04 224.60 192.22 228.92 C 193.02 233.35 188.25 237.04 184.12 235.48 C 179.08 234.19 178.60 226.23 183.22 224.10 Z" />
<path fill="#00e02f" opacity="1.00" d=" M 127.75 225.25 C 134.50 225.28 141.25 225.27 147.99 225.26 C 148.02 237.86 147.97 250.47 148.00 263.07 C 147.96 265.07 148.50 267.61 150.71 268.23 C 154.50 269.46 158.51 268.31 162.26 267.50 C 162.59 270.77 162.99 274.03 163.36 277.30 C 157.56 278.55 151.28 279.69 145.51 277.73 C 140.36 275.86 138.58 269.91 138.53 264.94 C 138.52 254.63 138.54 244.32 138.54 234.01 C 134.94 234.00 131.33 234.00 127.73 234.00 C 127.73 231.08 127.74 228.16 127.75 225.25 Z" />
<path fill="#00e02f" opacity="1.00" d=" M 309.27 225.27 C 312.51 225.27 315.75 225.27 318.99 225.26 C 319.01 242.82 318.99 260.39 319.00 277.95 C 316.25 278.12 313.50 278.27 310.74 278.33 C 310.24 275.76 309.75 273.19 309.20 270.64 C 308.02 273.16 307.33 276.32 304.56 277.60 C 299.15 280.18 291.92 278.44 288.44 273.49 C 285.43 269.35 284.80 264.04 284.72 259.05 C 284.89 253.90 285.70 248.27 289.30 244.31 C 292.82 240.13 299.15 238.95 304.14 240.84 C 307.15 242.01 307.79 245.50 309.09 248.08 C 309.47 240.48 309.18 232.87 309.27 225.27 M 299.39 249.43 C 293.77 252.07 293.80 259.72 295.25 264.88 C 296.34 269.50 302.21 271.00 306.03 268.87 C 308.41 267.48 309.02 264.52 309.24 262.00 C 309.38 258.67 309.54 255.08 307.90 252.06 C 306.32 249.08 302.35 248.37 299.39 249.43 Z" />
<path fill="#00e02f" opacity="1.00" d=" M 365.00 226.00 C 369.50 226.08 374.03 225.79 378.52 226.12 C 380.85 227.05 380.14 230.10 379.11 231.75 C 378.75 237.80 379.29 243.87 378.85 249.90 C 378.67 250.37 378.31 251.30 378.12 251.76 C 377.57 255.58 378.81 259.78 377.38 263.37 C 374.33 264.75 370.68 263.70 367.41 264.00 C 367.07 263.34 366.39 262.03 366.05 261.37 C 365.89 255.50 366.16 249.62 365.87 243.75 C 363.94 238.12 365.49 231.88 365.00 226.00 Z" />
<path fill="#00e02f" opacity="1.00" d=" M 213.57 241.61 C 217.32 239.74 222.08 239.24 225.91 241.16 C 228.56 242.50 229.20 245.63 230.34 248.12 C 230.59 245.66 230.83 243.19 231.08 240.72 C 234.05 240.73 237.02 240.73 240.00 240.74 C 239.94 252.16 240.11 263.59 239.93 275.01 C 239.83 280.92 238.54 287.71 233.21 291.18 C 226.16 295.80 217.33 294.36 209.37 295.01 C 209.29 292.26 209.21 289.51 209.03 286.77 C 214.74 286.15 220.84 287.49 226.26 285.18 C 231.36 282.23 230.27 275.52 230.15 270.57 C 229.04 273.13 228.36 276.34 225.55 277.60 C 219.66 280.43 211.73 278.05 208.61 272.22 C 205.56 266.68 205.28 259.99 206.19 253.85 C 206.83 249.01 209.20 244.10 213.57 241.61 M 220.38 249.43 C 214.76 252.09 214.80 259.77 216.27 264.93 C 217.43 269.72 223.85 271.16 227.57 268.50 C 229.55 266.97 230.02 264.30 230.24 261.97 C 230.37 258.64 230.54 255.06 228.90 252.04 C 227.31 249.08 223.34 248.37 220.38 249.43 Z" />
<path fill="#00e02f" opacity="1.00" d=" M 250.04 240.00 C 258.33 240.12 268.22 239.12 274.67 245.42 C 280.37 251.88 277.40 261.18 278.12 268.96 C 279.86 269.26 281.61 269.53 283.37 269.77 C 283.39 272.51 283.40 275.25 283.41 277.99 C 278.92 277.89 274.44 278.06 269.98 278.56 C 269.74 275.61 269.54 272.66 269.16 269.73 C 267.93 272.70 266.96 276.29 263.73 277.69 C 258.19 280.14 250.51 279.49 246.63 274.43 C 243.24 268.98 244.35 260.55 250.11 257.11 C 255.88 253.54 262.99 254.46 269.42 254.95 C 268.59 253.19 267.82 251.03 265.73 250.44 C 260.48 248.70 254.83 249.04 249.38 249.00 C 249.57 246.00 249.79 243.00 250.04 240.00 M 256.41 263.49 C 253.44 264.83 253.88 269.87 257.06 270.64 C 262.55 272.51 268.65 268.68 269.34 262.93 C 265.09 262.54 260.42 261.60 256.41 263.49 Z" />
<path fill="#00e02f" opacity="1.00" d=" M 336.49 240.75 C 342.54 239.07 349.84 239.97 354.31 244.72 C 358.78 249.65 359.43 256.79 358.81 263.12 C 358.33 268.75 355.45 274.53 350.18 277.07 C 343.48 280.06 334.43 279.31 329.44 273.50 C 325.04 268.14 324.72 260.69 325.61 254.12 C 326.43 248.13 330.41 242.29 336.49 240.75 M 339.38 249.51 C 335.87 251.13 334.91 255.45 334.95 258.97 C 334.83 262.74 335.61 267.55 339.48 269.27 C 342.38 270.44 346.18 269.57 347.67 266.64 C 349.86 262.45 349.79 257.19 348.10 252.85 C 346.77 249.50 342.59 248.09 339.38 249.51 Z" />
<path fill="#00e02f" opacity="1.00" d=" M 170.26 240.74 C 177.26 240.73 184.26 240.73 191.26 240.74 C 191.26 250.24 191.28 259.75 191.25 269.25 C 194.92 269.27 198.60 269.27 202.28 269.27 C 202.26 272.18 202.26 275.10 202.25 278.01 C 190.83 277.99 179.42 278.01 168.00 278.00 C 168.00 275.08 168.00 272.17 168.01 269.26 C 172.57 269.27 177.13 269.25 181.69 269.29 C 181.77 262.67 181.75 256.06 181.71 249.44 C 177.89 249.47 174.07 249.45 170.26 249.50 C 170.27 246.58 170.27 243.66 170.26 240.74 Z" />
<path fill="#00e02f" opacity="1.00" d=" M 365.62 267.63 C 368.81 266.26 372.60 267.23 376.03 267.01 C 377.81 266.66 379.34 268.16 378.99 269.96 C 378.77 273.38 379.72 277.17 378.38 280.38 C 375.07 281.77 371.16 280.70 367.63 280.94 C 366.97 280.60 365.66 279.93 365.00 279.59 C 365.34 275.65 364.20 271.34 365.62 267.63 Z" />
<path fill="#00e02f" opacity="1.00" d=" M 364.59 320.40 C 369.50 319.74 374.54 319.77 379.46 320.39 C 381.03 321.63 382.53 322.99 384.00 324.36 C 384.00 326.12 384.00 327.88 384.00 329.64 C 382.52 331.01 381.04 332.36 379.46 333.61 C 374.54 334.23 369.50 334.26 364.58 333.60 C 363.35 332.67 362.16 331.68 360.99 330.68 C 360.99 328.22 360.99 325.77 361.00 323.31 C 362.16 322.31 363.35 321.33 364.59 320.40 Z" />
<path fill="#00e02f" opacity="1.00" d=" M 367.27 335.98 C 370.68 336.06 374.11 335.81 377.53 336.12 C 379.89 337.01 378.78 339.75 378.62 341.57 C 377.64 342.63 376.61 343.64 375.56 344.62 C 373.52 344.93 371.47 345.00 369.42 345.10 C 368.02 343.59 366.65 342.05 365.37 340.45 C 364.48 338.54 366.21 337.31 367.27 335.98 Z" />
</g>
<g id="#131a17ff">
<path fill="#131a17" opacity="1.00" d=" M 100.61 234.00 C 103.72 229.66 106.70 225.23 109.81 220.89 C 111.43 220.97 113.05 221.05 114.67 221.15 C 117.53 225.51 120.60 229.73 123.59 234.00 C 121.45 234.00 119.31 234.00 117.17 234.00 C 115.47 231.22 113.80 228.44 112.08 225.68 C 110.39 228.46 108.69 231.23 107.01 234.01 C 104.87 234.00 102.74 234.00 100.61 234.00 Z" />
<path fill="#131a17" opacity="1.00" d=" M 58.00 228.00 C 70.00 228.00 82.00 228.00 94.00 228.00 C 94.00 229.82 94.00 231.64 94.00 233.46 C 89.02 233.47 84.03 233.48 79.05 233.43 C 78.94 248.28 79.03 263.14 79.00 278.00 C 77.00 278.00 75.00 278.00 73.00 278.00 C 72.96 263.14 73.09 248.27 72.93 233.41 C 67.95 233.49 62.98 233.47 58.00 233.46 C 58.00 231.64 58.00 229.82 58.00 228.00 Z" />
<path fill="#131a17" opacity="1.00" d=" M 109.21 240.17 C 114.45 239.40 120.52 240.71 123.89 245.09 C 127.91 250.09 128.51 256.88 127.96 263.05 C 127.52 268.31 125.28 273.82 120.72 276.78 C 113.94 280.82 103.74 279.57 99.32 272.63 C 95.61 266.77 95.62 259.37 96.72 252.76 C 97.77 246.50 102.73 240.92 109.21 240.17 M 108.46 246.64 C 104.69 248.19 102.93 252.37 102.53 256.18 C 102.16 260.81 102.19 266.00 105.17 269.85 C 108.69 274.50 116.95 274.05 119.73 268.84 C 122.53 263.37 122.55 256.49 120.13 250.89 C 118.21 246.57 112.69 244.83 108.46 246.64 Z" />
</g>
</svg>
